<?xml version="1.0" standalone="no"?>
<!DOCTYPE svg PUBLIC "-//W3C//DTD SVG 20010904//EN"
 "http://www.w3.org/TR/2001/REC-SVG-20010904/DTD/svg10.dtd">
<svg version="1.0" xmlns="http://www.w3.org/2000/svg"
 width="512.000000pt" height="512.000000pt" viewBox="0 0 512.000000 512.000000"
 preserveAspectRatio="xMidYMid meet">
<metadata>
gg
</metadata>
<g transform="translate(0.000000,512.000000) scale(0.100000,-0.100000)"
fill="#000000" stroke="none">
<path d="M3040 4930 c-262 -26 -567 -174 -782 -378 -230 -219 -375 -490 -504
-942 l-37 -130 -273 0 c-151 0 -274 -2 -274 -5 0 -4 -106 -423 -116 -457 -5
-16 14 -18 269 -20 l273 -3 -216 -870 c-261 -1048 -266 -1065 -333 -1189 -51
-94 -71 -101 -292 -101 -99 1 -231 6 -293 12 -229 23 -363 -28 -432 -164 -21
-41 -25 -62 -25 -143 0 -79 4 -103 23 -141 78 -158 254 -229 517 -208 326 25
616 174 878 448 196 207 343 467 451 801 24 74 121 452 216 840 95 388 176
708 179 711 6 7 1103 -10 1109 -16 2 -2 30 -117 63 -255 l59 -252 -130 -191
c-140 -209 -199 -286 -316 -414 l-76 -83 -44 39 c-67 59 -127 84 -204 84 -116
0 -212 -61 -272 -175 -19 -36 -23 -58 -23 -138 0 -80 4 -103 23 -143 35 -69
102 -134 180 -170 57 -27 81 -32 162 -35 117 -4 218 22 336 89 102 57 284 237
412 407 51 67 96 122 100 122 4 0 16 -24 26 -52 35 -102 125 -274 206 -398 93
-141 196 -250 282 -299 197 -111 458 -132 621 -50 127 65 256 179 303 270 27
49 29 63 29 159 0 96 -2 109 -27 151 -32 54 -87 105 -137 127 -21 9 -66 16
-107 16 -132 1 -229 -73 -286 -217 -12 -32 -28 -61 -35 -64 -49 -19 -191 185
-241 347 -11 36 -50 208 -88 382 -57 269 -66 321 -55 341 31 58 159 220 233
295 113 114 162 137 338 157 74 8 158 22 185 30 165 48 256 233 195 398 -54
143 -201 221 -372 197 -200 -29 -450 -192 -651 -425 -34 -38 -63 -69 -66 -68
-2 1 -14 33 -26 70 -43 136 -98 218 -169 256 -57 30 -152 31 -841 14 -313 -8
-571 -14 -573 -12 -6 5 89 382 119 475 39 119 109 255 159 313 66 75 70 75
309 32 247 -44 323 -45 412 -3 187 86 244 333 113 487 -99 115 -254 162 -464
141z"/>
</g>
</svg>
